<svg id="Layer_1" data-name="Layer 1" xmlns="http://www.w3.org/2000/svg" xmlns:xlink="http://www.w3.org/1999/xlink" width="509.8" height="88.1" viewBox="0 0 509.8 88.1"><defs><clipPath id="clip-path" transform="translate(-4.1 -6)"><rect x="4.1" y="6" width="373" height="88" fill="none"/></clipPath></defs><g clip-path="url(#clip-path)"><path d="M4.1,6V93.5H62.6L57.7,79h-39V20.7H38.3L33.3,6Z" transform="translate(-4.1 -6)" fill="#ee7623"/><path d="M48.1,6l5.1,14.6H91.8V78.8H72.4l4.8,14.6h29.3V6.1Z" transform="translate(-4.1 -6)"/><path d="M127.5,66.2h-6.4V93.5h6.4Z" transform="translate(-4.1 -6)"/><path d="M141.9,93.9a7.77,7.77,0,0,1-3-.4,6.14,6.14,0,0,1-2.6-1.5,7.2,7.2,0,0,1-1.5-2.7,7.77,7.77,0,0,1-.4-3V77.1h-3.2V72.4h3.2V66.9h6.2v5.5h4.5v4.7h-4.5v8.6a3.67,3.67,0,0,0,.7,2.5,3.59,3.59,0,0,0,1,.7,5,5,0,0,0,1.2.2,5.22,5.22,0,0,0,2.1-.4v4.7a16.41,16.41,0,0,1-3.7.5" transform="translate(-4.1 -6)"/><path d="M155.6,94a7.18,7.18,0,0,1-5-1.8,6.61,6.61,0,0,1-1.4-2,5.07,5.07,0,0,1-.4-2.4,6.43,6.43,0,0,1,.7-3.1,6.89,6.89,0,0,1,2.1-2.4,13,13,0,0,1,7.9-2h1.9a2.82,2.82,0,0,0-.4-1.5,2.73,2.73,0,0,0-.9-1.2,4.89,4.89,0,0,0-3.3-.9,12.51,12.51,0,0,0-6,1.6V73.6a15.8,15.8,0,0,1,7.1-1.7,9.23,9.23,0,0,1,3.7.5,9.38,9.38,0,0,1,3.2,1.9,8,8,0,0,1,1.9,3.2,9.23,9.23,0,0,1,.5,3.7V93.6H162l-.3-2.2a5.46,5.46,0,0,1-2.5,2,11.33,11.33,0,0,1-3.6.6Zm1.8-4.2a4,4,0,0,0,1.5-.3,2.73,2.73,0,0,0,1.2-.9,3.53,3.53,0,0,0,.8-1.3,4,4,0,0,0,.3-1.5V84h-1.6a7.26,7.26,0,0,0-3.8.8,2.19,2.19,0,0,0-1,.9,3.26,3.26,0,0,0-.4,1.3,4.25,4.25,0,0,0,.2,1.1,4.7,4.7,0,0,0,.6.9,2.65,2.65,0,0,0,2.2.8" transform="translate(-4.1 -6)"/><path d="M178.6,94a7.1,7.1,0,0,1-2.9-.5,6.58,6.58,0,0,1-2.3-1.7,8.64,8.64,0,0,1-2-5.9V72.4h6.2V84.8a4.83,4.83,0,0,0,.8,3.1,2.26,2.26,0,0,0,1.1.8,3.08,3.08,0,0,0,1.3.3,3.53,3.53,0,0,0,1.4-.3,4.44,4.44,0,0,0,1.1-.8,4.26,4.26,0,0,0,.9-3V72.5h6.2v21h-5.3l-.3-2.3a7.55,7.55,0,0,1-2.6,2.1,8.57,8.57,0,0,1-3.6.7Zm4.6-24.2h-5.3l4.4-6.4h6.5Z" transform="translate(-4.1 -6)"/><path d="M208.5,94a14.74,14.74,0,0,1-7.4-1.8,12.31,12.31,0,0,1-4.8-4.8,17.52,17.52,0,0,1-1.7-7.5,15.86,15.86,0,0,1,1.8-7.4,11.82,11.82,0,0,1,4.9-5,14.69,14.69,0,0,1,7.1-1.8,14.85,14.85,0,0,1,6.6,1.5v5.6a12.51,12.51,0,0,0-6-1.6,7,7,0,0,0-3.2.5,8,8,0,0,0-2.7,1.8,8.87,8.87,0,0,0-2.1,6.4,9,9,0,0,0,2.2,6.3,7.12,7.12,0,0,0,2.7,1.8,7,7,0,0,0,3.2.5,11.9,11.9,0,0,0,6.4-1.8v5.6a15.08,15.08,0,0,1-7.2,1.8" transform="translate(-4.1 -6)"/><path d="M227.6,94a7.1,7.1,0,0,1-2.9-.5,6.58,6.58,0,0,1-2.3-1.7,8.55,8.55,0,0,1-1.9-5.9V72.4h6.2V84.8a4.83,4.83,0,0,0,.8,3.1,2.26,2.26,0,0,0,1.1.8,3.08,3.08,0,0,0,1.3.3,3.53,3.53,0,0,0,1.4-.3,3.13,3.13,0,0,0,1.1-.8,4.8,4.8,0,0,0,.9-3V72.5h6.2v21H234l-.3-2.3a7.55,7.55,0,0,1-2.6,2.1,8.42,8.42,0,0,1-3.5.7" transform="translate(-4.1 -6)"/><path d="M250.6,63.4h-6.2V93.5h6.2Z" transform="translate(-4.1 -6)"/><path d="M264.7,93.9a7.77,7.77,0,0,1-3-.4,6.14,6.14,0,0,1-2.6-1.5,7.49,7.49,0,0,1-1.9-5.7V77.1h-3.3V72.4h3.3V66.9h6.2v5.5h4.5v4.7h-4.5v8.6a3.67,3.67,0,0,0,.7,2.5,3.59,3.59,0,0,0,1,.7,5,5,0,0,0,1.2.2,5.22,5.22,0,0,0,2.1-.4v4.7a15,15,0,0,1-3.7.5" transform="translate(-4.1 -6)"/><path d="M279.5,94a7.1,7.1,0,0,1-2.9-.5,6.58,6.58,0,0,1-2.3-1.7,8.64,8.64,0,0,1-2-5.9V72.4h6.2V84.8a4.83,4.83,0,0,0,.8,3.1,2.26,2.26,0,0,0,1.1.8,3.08,3.08,0,0,0,1.3.3,3.53,3.53,0,0,0,1.4-.3,4.44,4.44,0,0,0,1.1-.8,4.8,4.8,0,0,0,.9-3V72.5h6.2v21H286l-.3-2.3a7.55,7.55,0,0,1-2.6,2.1,9.58,9.58,0,0,1-3.6.7" transform="translate(-4.1 -6)"/><path d="M296.4,72.4h5.3l.4,3a6.41,6.41,0,0,1,2.1-2.5,4.76,4.76,0,0,1,2.9-.9,7.72,7.72,0,0,1,1.5.2v5.7a5.66,5.66,0,0,0-1.8-.3,4.67,4.67,0,0,0-1.7.3,3.6,3.6,0,0,0-1.4,1.1,6.28,6.28,0,0,0-1.2,3.7V93.5h-6.2Z" transform="translate(-4.1 -6)"/><path d="M318,94a7.26,7.26,0,0,1-5.1-1.8,6.61,6.61,0,0,1-1.4-2,5.07,5.07,0,0,1-.4-2.4,7.11,7.11,0,0,1,.7-3.2,6.11,6.11,0,0,1,2.1-2.4,13,13,0,0,1,7.9-2h1.8a4.19,4.19,0,0,0-.4-1.5,2.73,2.73,0,0,0-.9-1.2,5.49,5.49,0,0,0-3.3-.9,12.51,12.51,0,0,0-6,1.6V73.5a15.8,15.8,0,0,1,7.1-1.7,9.23,9.23,0,0,1,3.7.5,9.38,9.38,0,0,1,3.2,1.9,8,8,0,0,1,1.9,3.2,9.23,9.23,0,0,1,.5,3.7V93.5h-5l-.3-2.2a5.46,5.46,0,0,1-2.5,2,9.22,9.22,0,0,1-3.6.7Zm1.8-4.2a4,4,0,0,0,1.5-.3,3.6,3.6,0,0,0,1.2-.8,3.53,3.53,0,0,0,.8-1.3,4,4,0,0,0,.3-1.5V84.1H322a7.26,7.26,0,0,0-3.8.8,2.19,2.19,0,0,0-1,.9,3.26,3.26,0,0,0-.4,1.3,2.15,2.15,0,0,0,.2,1.1,1.8,1.8,0,0,0,.6.9,2.93,2.93,0,0,0,2.2.7" transform="translate(-4.1 -6)"/><path d="M340.5,63.4h-6.2V93.5h6.2Z" transform="translate(-4.1 -6)"/></g><path d="M139.4,50H122V20.7h17.4V27h-9.5v4.6h8.8V38h-8.8v5.5h9.5Z" transform="translate(-4.1 -6)"/><path d="M158.3,26.9a8.42,8.42,0,0,1,5.7,2c1.5,1.3,2.2,3.4,2.2,6.3V50h-7.8V37.6a6.39,6.39,0,0,0-.7-3.4,2.15,2.15,0,0,0-2.1-1.2,2.93,2.93,0,0,0-3,1.8,13.79,13.79,0,0,0-.8,5.2V50H144V27.3h5.9l1.1,3h.3a9.76,9.76,0,0,1,1.7-1.8,8.36,8.36,0,0,1,2.3-1.2A9.48,9.48,0,0,1,158.3,26.9Z" transform="translate(-4.1 -6)"/><path d="M181.9,50.4a14,14,0,0,1-6-1.2,8.44,8.44,0,0,1-3.9-3.8,14,14,0,0,1-1.4-6.6,12.32,12.32,0,0,1,1.6-6.7,10.15,10.15,0,0,1,4.3-3.9,14.76,14.76,0,0,1,6.1-1.2,17.52,17.52,0,0,1,4,.5,14.76,14.76,0,0,1,3.5,1.3l-2.3,5.8c-.9-.4-1.8-.7-2.6-1a10.05,10.05,0,0,0-2.5-.4,3.7,3.7,0,0,0-2.1.6,3.53,3.53,0,0,0-1.4,1.9,10.49,10.49,0,0,0,0,6.4,3,3,0,0,0,1.4,1.7,3.64,3.64,0,0,0,2.1.5,12,12,0,0,0,6.6-2v6.2a13.54,13.54,0,0,1-3.2,1.5A27.22,27.22,0,0,1,181.9,50.4Z" transform="translate(-4.1 -6)"/><path d="M197.6,18.2a5.43,5.43,0,0,1,2.9.7,3,3,0,0,1,1.3,2.8c0,1.3-.4,2.3-1.3,2.7a6.89,6.89,0,0,1-2.9.7,5.43,5.43,0,0,1-2.9-.7,2.93,2.93,0,0,1-1.2-2.7,3,3,0,0,1,1.2-2.8A5.43,5.43,0,0,1,197.6,18.2Zm3.9,9.1V50h-7.8V27.3Z" transform="translate(-4.1 -6)"/><path d="M217.3,50.4a14,14,0,0,1-6-1.2,8.44,8.44,0,0,1-3.9-3.8,14,14,0,0,1-1.4-6.6,12.32,12.32,0,0,1,1.6-6.7,10.15,10.15,0,0,1,4.3-3.9A14.76,14.76,0,0,1,218,27a17.52,17.52,0,0,1,4,.5,14.76,14.76,0,0,1,3.5,1.3l-2.3,5.8c-.9-.4-1.8-.7-2.6-1a10.05,10.05,0,0,0-2.5-.4,3.7,3.7,0,0,0-2.1.6,3.53,3.53,0,0,0-1.4,1.9,10.49,10.49,0,0,0,0,6.4,3,3,0,0,0,1.4,1.7,3.64,3.64,0,0,0,2.1.5,12,12,0,0,0,6.6-2v6.2a13.54,13.54,0,0,1-3.2,1.5A26.05,26.05,0,0,1,217.3,50.4Z" transform="translate(-4.1 -6)"/><path d="M236.9,50h-7.8V18.8h7.8Z" transform="translate(-4.1 -6)"/><path d="M264,38.6a15,15,0,0,1-.8,5,9.31,9.31,0,0,1-2.3,3.7,9.67,9.67,0,0,1-3.6,2.3,14,14,0,0,1-4.7.8,13.3,13.3,0,0,1-4.5-.8,9.67,9.67,0,0,1-3.6-2.3,10.77,10.77,0,0,1-2.4-3.7,13.13,13.13,0,0,1-.8-5,14.06,14.06,0,0,1,1.4-6.4,9.41,9.41,0,0,1,3.9-4,12.78,12.78,0,0,1,6.1-1.4,12.13,12.13,0,0,1,5.8,1.4,9.64,9.64,0,0,1,4,4A12.63,12.63,0,0,1,264,38.6Zm-14.7,0a15.48,15.48,0,0,0,.3,3.3,3.51,3.51,0,0,0,1.1,2,2.72,2.72,0,0,0,2,.7,2.35,2.35,0,0,0,1.9-.7,4.76,4.76,0,0,0,1.1-2,15.48,15.48,0,0,0,.3-3.3,13.88,13.88,0,0,0-.3-3.2,3.88,3.88,0,0,0-1.1-2,3,3,0,0,0-2-.7,2.79,2.79,0,0,0-2.6,1.5A11.8,11.8,0,0,0,249.3,38.6Z" transform="translate(-4.1 -6)"/><path d="M282.3,26.9a6.83,6.83,0,0,1,5.9,3q2.1,3,2.1,8.7a17.64,17.64,0,0,1-1.1,6.5,8.34,8.34,0,0,1-3,4,7.06,7.06,0,0,1-4.3,1.3,7,7,0,0,1-2.7-.4,6.07,6.07,0,0,1-1.8-1,6.79,6.79,0,0,1-1.2-1.2H276c.1.5.1,1.1.2,1.7a13.42,13.42,0,0,1,.1,2.1v8.3h-7.8V27.3h6.4l1.1,2.9h.4a7,7,0,0,1,1.4-1.6,5.61,5.61,0,0,1,2-1.2A4.65,4.65,0,0,1,282.3,26.9ZM279.4,33a3,3,0,0,0-1.8.5,3.16,3.16,0,0,0-1,1.6,10.06,10.06,0,0,0-.3,2.7v.6a12.62,12.62,0,0,0,.3,3,3.86,3.86,0,0,0,1,1.9,2.88,2.88,0,0,0,1.9.6,2.11,2.11,0,0,0,1.6-.6,3.87,3.87,0,0,0,1-1.8,13.88,13.88,0,0,0,.3-3.2,8.35,8.35,0,0,0-.8-4.2A2.53,2.53,0,0,0,279.4,33Z" transform="translate(-4.1 -6)"/><path d="M305,26.9a12.61,12.61,0,0,1,5.7,1.2,8.34,8.34,0,0,1,3.7,3.5,11.32,11.32,0,0,1,1.3,5.8v3.5h-14a4.14,4.14,0,0,0,1.3,2.9,4.87,4.87,0,0,0,3.6,1.1,16.11,16.11,0,0,0,3.9-.4,20.53,20.53,0,0,0,3.7-1.3v5.6a14,14,0,0,1-3.6,1.3,22.46,22.46,0,0,1-4.9.4,14.76,14.76,0,0,1-6.1-1.2,9.86,9.86,0,0,1-4.3-3.8,12.88,12.88,0,0,1-1.6-6.6,14.48,14.48,0,0,1,1.4-6.7,8.2,8.2,0,0,1,3.9-3.9A12.08,12.08,0,0,1,305,26.9Zm9.5-8.3V19c-.5.4-1.1.9-1.8,1.4a24.92,24.92,0,0,1-2.4,1.7c-.8.6-1.6,1.2-2.4,1.7s-1.5,1-2,1.3h-5.2v-.6c.5-.5,1-1.1,1.7-1.8s1.3-1.4,2-2.2a12.68,12.68,0,0,0,1.6-2h8.5Zm-9.2,13.6a3.17,3.17,0,0,0-2.3.9,4.2,4.2,0,0,0-1.1,2.7h6.7a3.42,3.42,0,0,0-.4-1.8,3,3,0,0,0-2.9-1.8Z" transform="translate(-4.1 -6)"/><path d="M327.2,50.4a7,7,0,0,1-5.8-3c-1.5-2-2.3-4.9-2.3-8.7s.8-6.8,2.3-8.8a7.13,7.13,0,0,1,6-3,6.77,6.77,0,0,1,2.6.4,6.15,6.15,0,0,1,1.9,1.2,11.51,11.51,0,0,1,1.4,1.7h.2q-.15-.9-.3-2.4c-.1-1-.1-2-.1-3V18.7H341V50h-5.9l-1.7-2.9h-.3a7,7,0,0,1-1.4,1.6,5.61,5.61,0,0,1-2,1.2A6.18,6.18,0,0,1,327.2,50.4Zm3.2-6.2a3,3,0,0,0,2.7-1.2,6.85,6.85,0,0,0,.8-3.6v-.6a7.64,7.64,0,0,0-.8-4.1,2.75,2.75,0,0,0-2.8-1.4,2.78,2.78,0,0,0-2.3,1.4,7.71,7.71,0,0,0-.9,4.2A7.1,7.1,0,0,0,328,43,2.85,2.85,0,0,0,330.4,44.2Z" transform="translate(-4.1 -6)"/><path d="M350.5,18.2a5.43,5.43,0,0,1,2.9.7,3,3,0,0,1,1.3,2.8c0,1.3-.4,2.3-1.3,2.7a6.89,6.89,0,0,1-2.9.7,5.43,5.43,0,0,1-2.9-.7,2.93,2.93,0,0,1-1.2-2.7,3,3,0,0,1,1.2-2.8A5.43,5.43,0,0,1,350.5,18.2Zm3.9,9.1V50h-7.8V27.3Z" transform="translate(-4.1 -6)"/><path d="M370.9,26.9a9.78,9.78,0,0,1,6.7,2.1,7.62,7.62,0,0,1,2.4,6.1V50h-5.4l-1.5-3H373a9.47,9.47,0,0,1-2,2,6.14,6.14,0,0,1-2.3,1.1,13.92,13.92,0,0,1-3.2.4,7.84,7.84,0,0,1-3.5-.8,5.77,5.77,0,0,1-2.5-2.4,8.3,8.3,0,0,1-.9-4.1,6.14,6.14,0,0,1,2.5-5.4c1.7-1.2,4.1-1.8,7.3-2l3.8-.1v-.3a2.61,2.61,0,0,0-.8-2.2,3.17,3.17,0,0,0-2-.6,11.73,11.73,0,0,0-3,.5,21.9,21.9,0,0,0-3.3,1.2l-2.3-5.2a15.23,15.23,0,0,1,4.4-1.5A21.21,21.21,0,0,1,370.9,26.9Zm1.4,12.9-1.8.1a5.14,5.14,0,0,0-3,.8,2.56,2.56,0,0,0-.3,3.6,2.27,2.27,0,0,0,1.6.6,3.41,3.41,0,0,0,2.4-.9,2.9,2.9,0,0,0,1-2.3V39.8Z" transform="translate(-4.1 -6)"/><path d="M408.3,32.8h12.6V48.6a43.73,43.73,0,0,1-5.2,1.3,39.64,39.64,0,0,1-6.1.5,15.82,15.82,0,0,1-7.4-1.6,12,12,0,0,1-5-5,17.85,17.85,0,0,1-1.8-8.5,16.86,16.86,0,0,1,1.8-8,12.42,12.42,0,0,1,5.2-5.2,18,18,0,0,1,8.4-1.8,28.67,28.67,0,0,1,5.2.5,21.89,21.89,0,0,1,4.3,1.3l-2.5,6.2a18.54,18.54,0,0,0-3.3-1.2,14.48,14.48,0,0,0-3.7-.4,6.76,6.76,0,0,0-4.2,1.2,6.33,6.33,0,0,0-2.3,3.2,12.69,12.69,0,0,0-.7,4.4,12.62,12.62,0,0,0,.8,4.6,5.84,5.84,0,0,0,2.3,2.8,6.91,6.91,0,0,0,3.6,1,10.9,10.9,0,0,0,1.7-.1,13.89,13.89,0,0,0,1.5-.2V39h-5.2V32.8Z" transform="translate(-4.1 -6)"/><path d="M437.5,26.9a9.78,9.78,0,0,1,6.7,2.1,7.62,7.62,0,0,1,2.4,6.1V50h-5.4l-1.5-3h-.2a9.47,9.47,0,0,1-2,2,6.14,6.14,0,0,1-2.3,1.1,13.92,13.92,0,0,1-3.2.4,7.84,7.84,0,0,1-3.5-.8,5.77,5.77,0,0,1-2.5-2.4,8.3,8.3,0,0,1-.9-4.1,6.14,6.14,0,0,1,2.5-5.4c1.7-1.2,4.1-1.8,7.3-2l3.8-.1v-.3a2.61,2.61,0,0,0-.8-2.2,3.17,3.17,0,0,0-2-.6,11.73,11.73,0,0,0-3,.5,21.9,21.9,0,0,0-3.3,1.2l-2.3-5.2a15.23,15.23,0,0,1,4.4-1.5A22,22,0,0,1,437.5,26.9Zm1.3,12.9-1.8.1a5.14,5.14,0,0,0-3,.8,2.56,2.56,0,0,0-.3,3.6,2.27,2.27,0,0,0,1.6.6,3.41,3.41,0,0,0,2.4-.9,2.9,2.9,0,0,0,1-2.3V39.8Z" transform="translate(-4.1 -6)"/><path d="M479.6,26.9a8.09,8.09,0,0,1,5.9,2c1.3,1.3,2.1,3.4,2.1,6.3V50h-7.8V37.6a6.5,6.5,0,0,0-.7-3.6,2.28,2.28,0,0,0-2.1-1,2.62,2.62,0,0,0-2.6,1.7,11.92,11.92,0,0,0-.7,4.7V50h-7.8V37.6a10.06,10.06,0,0,0-.3-2.7,2.75,2.75,0,0,0-.9-1.5,2.46,2.46,0,0,0-1.5-.5,2.86,2.86,0,0,0-2.1.8,4.48,4.48,0,0,0-1.1,2.4,20.15,20.15,0,0,0-.3,3.8V50H452V27.3h5.9l1.1,2.8h.2a4.89,4.89,0,0,1,1.6-1.6,5.48,5.48,0,0,1,2.3-1.1,13.61,13.61,0,0,1,3-.4,9.64,9.64,0,0,1,4.1.8,5.82,5.82,0,0,1,2.6,2.3h.2a6.35,6.35,0,0,1,2.8-2.3A8.19,8.19,0,0,1,479.6,26.9Z" transform="translate(-4.1 -6)"/><path d="M503.2,26.9a12.61,12.61,0,0,1,5.7,1.2,8.34,8.34,0,0,1,3.7,3.5,11.32,11.32,0,0,1,1.3,5.8v3.5h-14a4.14,4.14,0,0,0,1.3,2.9,4.87,4.87,0,0,0,3.6,1.1,16.11,16.11,0,0,0,3.9-.4,20.53,20.53,0,0,0,3.7-1.3v5.6a14,14,0,0,1-3.6,1.3,22.46,22.46,0,0,1-4.9.4,14.76,14.76,0,0,1-6.1-1.2,9.86,9.86,0,0,1-4.3-3.8,12.88,12.88,0,0,1-1.6-6.6,14.48,14.48,0,0,1,1.4-6.7,8.2,8.2,0,0,1,3.9-3.9A11.83,11.83,0,0,1,503.2,26.9Zm.2,5.3a3.17,3.17,0,0,0-2.3.9,4.2,4.2,0,0,0-1.1,2.7h6.7a3.42,3.42,0,0,0-.4-1.8,3.48,3.48,0,0,0-1.1-1.3A3,3,0,0,0,503.4,32.2Z" transform="translate(-4.1 -6)"/><path d="M32.3,57a7.54,7.54,0,0,1-4.1-1.2,7.33,7.33,0,0,1-2.7-3.3,6.72,6.72,0,0,1-.4-4.2A7.28,7.28,0,0,1,35,43a7.91,7.91,0,0,1,3.3,2.7,7.3,7.3,0,0,1,1.2,4.1,6.71,6.71,0,0,1-.6,2.8,7.35,7.35,0,0,1-4,4A10.13,10.13,0,0,1,32.3,57Z" transform="translate(-4.1 -6)" fill="#ee7623"/><path d="M79.2,47.9h5.4v3.9H79.2v5.3H75.3V51.8H69.9V47.9h5.4V42.5h3.9Z" transform="translate(-4.1 -6)"/></svg>